/* XPM */
static char * icon_xpm[] = {
"48 48 16 1",
" 	c None",
".	c #808080",
"+	c #FFFF00",
"@	c #C0C0C0",
"#	c #000000",
"$	c #FFFFFF",
"%	c #0000FF",
"&	c #000080",
"*	c #E3E3E3",
"=	c #727272",
"-	c #1D1D1D",
";	c #8E8E8E",
">	c #AAAAAA",
",	c #555555",
"'	c #393939",
")	c #C7C7C7",
"      ......................................    ",
"      .+@+@+@+@+@+@+@+@+@+@+@+@+@+@+@+@+@+@#    ",
"      .@+@+@+@+@+@+@+@+@+@+@+@+@+@+@+@+@+@+#    ",
"      .+@+@+@+@+@+@+@+@+@+@+@+@+@+@+@+@+@+@#    ",
"      .@+@+@+@+@+@+@+@+@+@+@+@+@+@+@+@+@+@+#    ",
"      .....................................#    ",
"      .@@@@@@@@@@@@@@@@@@@@@@@@@@@@@@@@@@@@#    ",
"      .$$$$$$$$$$$$$$$$$$$$$$$$$$$$$$$$$$$@#    ",
"      .$$$$$$$$$$$$$$$$$$$$$$$$$$$$$$$$$$$@#    ",
"      .$$$$$$$$$$$$$$$$$$$$$$$$$$$$$$$$$$$@#    ",
"      .$$$%&%&%&%&%&%&%&%&%&%&%&%&%&%&%&$$@#    ",
"      .$$$$$$$$$$$$$$$$$$$$$$$$$$$$$$$$$$$@#    ",
"      .$$$$$$$$$$$$$$$$$$$$$$$$$$$$$$$$$$$@#    ",
"      .$$$&%&%&%&%&%&%&%&%&%&%&%&%&%&%&%$$@#    ",
"      .$$$$$$$$$$$$$$$$$$$$$$$$$$$$$$$$$$$@#    ",
"      .$$$$$$$$$$$$$$$$$$$$$$$$$$$$$$$$$$$@#    ",
"      .$$$%&%&%&%&%&%&%&%&%&%&%&%&%&%&%&$$@#    ",
"      .$$$$$$$$$$$$$$$$$$$$$$$$$$$$$$$$$$$@#    ",
"      .$$$$$$$$$$$$$$$$$$$$$$$$$$$$$$$$$$$@#    ",
"      .$$$&%&%&%&%&%&%&%&%&%&%&%&%&%&%&%$$@#    ",
"      .$$$$$$$$$$$$$$$$$$$$$$$$$$$$$$$$$$$@#    ",
"      .$$$$$$$$$$$$$$$$$$$$$$$$$$$$$$$$$$$@#    ",
"      .$$$%&%&%&%&%&%&%&%$$$$$$$$$$$$$$$$$@#    ",
"      .$$$$$$$$$$$$$$$$$$$$*=######-;$$$$$@#    ",
"      .$$$$$$$$$$$$$$$$$$$$$$>#>$$*=#>$$$$@#    ",
"      .$$$&%&%&%&%&%&%&%&$$$$>#>$$$>#,$$$$@#    ",
"      .$$$$$$$$$$$$$$$$$$$$$$>#>$$$>#,$$$$@#    ",
"      .$$$$$$$$$$$$$$$$$$$$$$>#>$$$>#>$$$$@#    ",
"      .$$$%&%&%&%&%&%&%&%$$$$>#=>>>',*$$$$@#    ",
"      .$$$$$$$$$$$$$$$$$$$$$$>#####>*$$$$$@#    ",
"      .$$$$$$$$$$$$$$$$$$$$$$>#>$$>#-)$$$$@#    ",
"      .$$$&%&%&%&%&%&%&%&$$$$>#>$$$*'-)$$$@#    ",
"      .$$$$$$$$$$$$$$$$$$$$$$>#>$$$$,#>$$$@#    ",
"      .$$$$$$$$$$$$$$$$$$$$$$>#>$$$$,#>$$$@#    ",
"      .$$$%&%&%&%&%&%&%&%$$$$>#>$$$;-'*$$$@#    ",
"      .$$$$$$$$$$$$$$$$$$$$*;'#',,,#'>$$$$@#    ",
"      .$$$$$$$$$$$$$$$$$$$$*>>>>>>>>*$$$$$@#    ",
"      .$$$&%&%&%&%&%&%&%&$$$$$$$$$$$$$$$$$@#    ",
"      .$$$$$$$$$$$$$$$$$$$$$$$$$$$$$$$$$$$@#    ",
"      .$$$$$$$$$$$$$$$$$$$$$$$$$$$$$$$$$$$@#    ",
"      .$$$%&%&%&%&%&%&%&%&%&%&%&%&%&%&%&$$@#    ",
"      .$$$$$$$$$$$$$$$$$$$$$$$$$$$$$$$$$$$@#    ",
"      .$$$$$$$$$$$$$$$$$$$$$$$$$$$$$$$$$$$@#    ",
"      .$$$&%&%&%&%&%&%&%&%&%&%&%&%&%&%&%$$@#    ",
"      .$$$$$$$$$$$$$$$$$$$$$$$$$$$$$$$$$$$@#    ",
"      .$$$$$$$$$$$$$$$$$$$$$$$$$$$$$$$$$$$@#    ",
"      .@@@@@@@@@@@@@@@@@@@@@@@@@@@@@@@@@@@@#    ",
"      ######################################    "};
