/* XPM */
static char * bibledit_bibletime_xpm[] = {
"48 48 909 2",
"  	c None",
". 	c #314040",
"+ 	c #384443",
"@ 	c #464D4B",
"# 	c #464A47",
"$ 	c #3F4740",
"% 	c #3E4B42",
"& 	c #444C44",
"* 	c #4A4F48",
"= 	c #4D504A",
"- 	c #42504B",
"; 	c #404B47",
"> 	c #464B46",
", 	c #52514D",
"' 	c #444942",
") 	c #374139",
"! 	c #333C38",
"~ 	c #333B3D",
"{ 	c #323B3D",
"] 	c #303C3C",
"^ 	c #2E3A3A",
"/ 	c #2C3838",
"( 	c #2A3636",
"_ 	c #233132",
": 	c #293533",
"< 	c #313A33",
"[ 	c #474D40",
"} 	c #394337",
"| 	c #334338",
"1 	c #374339",
"2 	c #464D45",
"3 	c #434941",
"4 	c #43493B",
"5 	c #3E4236",
"6 	c #42443B",
"7 	c #42423C",
"8 	c #2D332C",
"9 	c #263128",
"0 	c #222B28",
"a 	c #272F31",
"b 	c #1E2729",
"c 	c #1B2627",
"d 	c #182424",
"e 	c #162222",
"f 	c #152121",
"g 	c #2A383C",
"h 	c #313D3A",
"i 	c #3B4536",
"j 	c #414930",
"k 	c #676D51",
"l 	c #53573C",
"m 	c #66654D",
"n 	c #706B54",
"o 	c #6D664F",
"p 	c #646042",
"q 	c #5F5D45",
"r 	c #616250",
"s 	c #404237",
"t 	c #393F37",
"u 	c #2F3A31",
"v 	c #2A332F",
"w 	c #293133",
"x 	c #262F31",
"y 	c #202C2C",
"z 	c #1E2A2A",
"A 	c #1D2A2A",
"B 	c #1B2727",
"C 	c #192525",
"D 	c #344444",
"E 	c #3C4941",
"F 	c #47513D",
"G 	c #545A3D",
"H 	c #676442",
"I 	c #A29A72",
"J 	c #8D8355",
"K 	c #AD9C6C",
"L 	c #B89F71",
"M 	c #968B5D",
"N 	c #9E936C",
"O 	c #686248",
"P 	c #4F5142",
"Q 	c #41483D",
"R 	c #3D463B",
"S 	c #333D37",
"T 	c #2F3938",
"U 	c #2B3636",
"V 	c #263130",
"W 	c #242F2E",
"X 	c #25302F",
"Y 	c #232D2D",
"Z 	c #202B2A",
"` 	c #455345",
" .	c #545D4A",
"..	c #676750",
"+.	c #7D785B",
"@.	c #92825C",
"#.	c #C4B588",
"$.	c #F1ECBB",
"%.	c #FAF1C1",
"&.	c #FEEDC0",
"*.	c #F5E9BB",
"=.	c #BFAD7D",
"-.	c #908057",
";.	c #6C674C",
">.	c #585945",
",.	c #4D4F3D",
"'.	c #43493A",
").	c #3D473A",
"!.	c #374338",
"~.	c #2E3C32",
"{.	c #2B3A30",
"].	c #2A392F",
"^.	c #28372D",
"/.	c #29342B",
"(.	c #61634A",
"_.	c #747054",
":.	c #8B805E",
"<.	c #A4926B",
"[.	c #CFB685",
"}.	c #F9EABD",
"|.	c #FAF9DE",
"1.	c #F5F9E9",
"2.	c #F9FAEA",
"3.	c #F7F7E0",
"4.	c #F3E9BC",
"5.	c #C8B681",
"6.	c #96875F",
"7.	c #7B7354",
"8.	c #656042",
"9.	c #56543A",
"0.	c #4C4E36",
"a.	c #434932",
"b.	c #3A4735",
"c.	c #364331",
"d.	c #33412E",
"e.	c #313F2C",
"f.	c #343B2A",
"g.	c #7E734F",
"h.	c #91805B",
"i.	c #B39C70",
"j.	c #D7B887",
"k.	c #FAE5B2",
"l.	c #FDF9DA",
"m.	c #F5F9F7",
"n.	c #F3F9FD",
"o.	c #F6F9F5",
"p.	c #F1FBFB",
"q.	c #FEFDD2",
"r.	c #F3E1A0",
"s.	c #C2A875",
"t.	c #99865D",
"u.	c #7E7349",
"v.	c #6D643D",
"w.	c #625C39",
"x.	c #5A5536",
"y.	c #554F39",
"z.	c #504A34",
"A.	c #4E4832",
"B.	c #4B4630",
"C.	c #47462F",
"D.	c #9A8459",
"E.	c #B29C6D",
"F.	c #D2BC89",
"G.	c #F7E0A8",
"H.	c #FFFDD8",
"I.	c #FCFCEE",
"J.	c #F5F8F2",
"K.	c #F4FBF7",
"L.	c #F2F9F6",
"M.	c #F7F9F7",
"N.	c #FFFDF1",
"O.	c #FFFBD8",
"P.	c #F4EAAE",
"Q.	c #D9C486",
"R.	c #BAA06A",
"S.	c #A1895C",
"T.	c #8C7652",
"U.	c #7C6949",
"V.	c #70623D",
"W.	c #6A5B39",
"X.	c #655637",
"Y.	c #615136",
"Z.	c #5B4D32",
"`.	c #553F18",
" +	c #5F4920",
".+	c #705C2D",
"++	c #867341",
"@+	c #9C895A",
"#+	c #D1C197",
"$+	c #F5E9C1",
"%+	c #FBF2CD",
"&+	c #F8F0CD",
"*+	c #EBDEB6",
"=+	c #C1B08C",
"-+	c #978360",
";+	c #796538",
">+	c #645129",
",+	c #594928",
"'+	c #46391D",
")+	c #382D18",
"!+	c #332C17",
"~+	c #312710",
"{+	c #2E2412",
"]+	c #291C11",
"^+	c #281C12",
"/+	c #281B11",
"(+	c #5E4D30",
"_+	c #645132",
":+	c #72613C",
"<+	c #7C6D43",
"[+	c #9D8553",
"}+	c #BFA169",
"|+	c #C0A670",
"1+	c #C4AE7A",
"2+	c #B8A472",
"3+	c #9F884F",
"4+	c #A18C55",
"5+	c #79653A",
"6+	c #665138",
"7+	c #4D3F2F",
"8+	c #3D3424",
"9+	c #302A1B",
"0+	c #292717",
"a+	c #242615",
"b+	c #252413",
"c+	c #262417",
"d+	c #222017",
"e+	c #1E1B16",
"f+	c #17140F",
"g+	c #3F301A",
"h+	c #45371E",
"i+	c #4D4023",
"j+	c #514524",
"k+	c #756038",
"l+	c #73592A",
"m+	c #7C6336",
"n+	c #7C693E",
"o+	c #78653C",
"p+	c #6D5932",
"q+	c #5F4F23",
"r+	c #655A34",
"s+	c #372E1B",
"t+	c #34281F",
"u+	c #2D231A",
"v+	c #342D21",
"w+	c #302C1C",
"x+	c #2A2817",
"y+	c #2B311B",
"z+	c #242B17",
"A+	c #1C2212",
"B+	c #1A1F12",
"C+	c #15190D",
"D+	c #312916",
"E+	c #39301E",
"F+	c #3E3623",
"G+	c #4A422F",
"H+	c #4C4126",
"I+	c #514522",
"J+	c #524523",
"K+	c #534625",
"L+	c #4D4120",
"M+	c #3A311F",
"N+	c #342C1A",
"O+	c #2C2411",
"P+	c #443B28",
"Q+	c #241F13",
"R+	c #1E1B14",
"S+	c #232019",
"T+	c #2F2D26",
"U+	c #33322A",
"V+	c #3D402F",
"W+	c #2D3120",
"X+	c #212514",
"Y+	c #212513",
"Z+	c #1A1E0F",
"`+	c #342B1D",
" @	c #352C1F",
".@	c #3D3426",
"+@	c #3A3022",
"@@	c #3D3323",
"#@	c #3F3425",
"$@	c #413627",
"%@	c #362D1F",
"&@	c #392F22",
"*@	c #362C1F",
"=@	c #3F372B",
"-@	c #383026",
";@	c #393327",
">@	c #3A3328",
",@	c #4F493E",
"'@	c #3D3B2C",
")@	c #333122",
"!@	c #323023",
"~@	c #4A3F36",
"{@	c #4A4037",
"]@	c #584E45",
"^@	c #81776E",
"/@	c #867E71",
"(@	c #90897A",
"_@	c #958E80",
":@	c #979081",
"<@	c #979082",
"[@	c #887E75",
"}@	c #554B42",
"|@	c #6C6259",
"1@	c #ADA299",
"2@	c #B8ADA2",
"3@	c #B7AB9E",
"4@	c #B9AEA1",
"5@	c #B5AA9C",
"6@	c #BFB4A7",
"7@	c #8C8577",
"8@	c #4F483A",
"9@	c #423B2E",
"0@	c #474033",
"a@	c #433C31",
"b@	c #776F64",
"c@	c #B5ADA2",
"d@	c #BFB7AC",
"e@	c #C9C2B6",
"f@	c #CDC7B9",
"g@	c #C1BCAC",
"h@	c #BAB6A5",
"i@	c #BEBAAA",
"j@	c #B8AEA4",
"k@	c #A79D93",
"l@	c #B6ACA2",
"m@	c #C2B8AE",
"n@	c #C3B9AD",
"o@	c #C1B7AA",
"p@	c #BCB2A5",
"q@	c #C2B7AB",
"r@	c #BCB2A6",
"s@	c #B9B0A3",
"t@	c #958A7C",
"u@	c #7E7161",
"v@	c #564735",
"w@	c #443A2E",
"x@	c #878173",
"y@	c #BCB6A8",
"z@	c #BFB9AB",
"A@	c #CBC5B7",
"B@	c #CFC9BB",
"C@	c #C9C3B5",
"D@	c #C5BFB1",
"E@	c #C7C1B3",
"F@	c #B0A69A",
"G@	c #BBB1A5",
"H@	c #BDB3A7",
"I@	c #C8BEB2",
"J@	c #D3C9BD",
"K@	c #C5BBAF",
"L@	c #C2B8AC",
"M@	c #D2C8BC",
"N@	c #C9C0B4",
"O@	c #9D9181",
"P@	c #887867",
"Q@	c #877560",
"R@	c #655A4D",
"S@	c #938D7F",
"T@	c #C4BEB0",
"U@	c #D8D2C4",
"V@	c #D1CBBD",
"W@	c #BEB4A8",
"X@	c #AEA498",
"Y@	c #C0B6AA",
"Z@	c #C7BDB1",
"`@	c #CEC4B8",
" #	c #B9AFA3",
".#	c #C0B7AA",
"+#	c #D6CDC0",
"@#	c #AFA394",
"##	c #918170",
"$#	c #8C7965",
"%#	c #82776A",
"&#	c #9E988B",
"*#	c #CFC9BC",
"=#	c #DDD7C9",
"-#	c #D6D0C3",
";#	c #CAC4B6",
">#	c #D2CDBF",
",#	c #C5BAAE",
"'#	c #BAB0A4",
")#	c #AAA094",
"!#	c #CBC1B5",
"~#	c #D4CABF",
"{#	c #C4BBAE",
"]#	c #D9D0C4",
"^#	c #C0B4A4",
"/#	c #988978",
"(#	c #93806C",
"_#	c #928779",
":#	c #A9A198",
"<#	c #C7C0B6",
"[#	c #CDC6BC",
"}#	c #DAD3C9",
"|#	c #EEE7DC",
"1#	c #E3DCD2",
"2#	c #DBD4CA",
"3#	c #DCD5CC",
"4#	c #DDD6CB",
"5#	c #A7A293",
"6#	c #C8C2B4",
"7#	c #CAC4B8",
"8#	c #D0C9BF",
"9#	c #C5BDB3",
"0#	c #BFB8AE",
"a#	c #C0BBAD",
"b#	c #D2CABA",
"c#	c #A99D8B",
"d#	c #948570",
"e#	c #8D7E6B",
"f#	c #B3ABA1",
"g#	c #CFC8BE",
"h#	c #D1CAC0",
"i#	c #E0D9CF",
"j#	c #EFE9DF",
"k#	c #E6DFD5",
"l#	c #D9D2C8",
"m#	c #D9D3C8",
"n#	c #C9C3B6",
"o#	c #BDB7A9",
"p#	c #A39D8F",
"q#	c #CEC7BB",
"r#	c #D6CFC5",
"s#	c #C4BDB3",
"t#	c #C0B9AF",
"u#	c #BDB7AC",
"v#	c #D7CFBF",
"w#	c #B2A694",
"x#	c #988A74",
"y#	c #92836E",
"z#	c #BDB8AE",
"A#	c #CEC7BD",
"B#	c #DFD8CE",
"C#	c #EAE4DA",
"D#	c #DCD5CB",
"E#	c #D3CCC2",
"F#	c #D7D0C5",
"G#	c #CCC6B9",
"H#	c #ABA597",
"I#	c #C6BFB4",
"J#	c #CCC5BB",
"K#	c #C5BEB4",
"L#	c #C1BBB0",
"M#	c #B6B2A4",
"N#	c #D2CAB9",
"O#	c #BEB3A1",
"P#	c #948671",
"Q#	c #94866C",
"R#	c #C5C0B4",
"S#	c #CCC5B9",
"T#	c #CFC9BD",
"U#	c #DFD8CC",
"V#	c #EEEAE2",
"W#	c #DBD7D1",
"X#	c #D6D3CD",
"Y#	c #DDDAD3",
"Z#	c #E1DED6",
"`#	c #DEDACC",
" $	c #B0AA9C",
".$	c #C0BAAC",
"+$	c #F1E8E0",
"@$	c #EAE1D9",
"#$	c #E4DCD4",
"$$	c #E0D7CE",
"%$	c #E3D9C6",
"&$	c #E2D6C2",
"*$	c #C4B7A2",
"=$	c #9D8D77",
"-$	c #8B7C63",
";$	c #C6C0B2",
">$	c #C2BCAD",
",$	c #D5D0C4",
"'$	c #D1C9BE",
")$	c #CCC4B9",
"!$	c #C1B8AE",
"~$	c #B8B2A4",
"{$	c #B1AB9D",
"]$	c #B4AEA0",
"^$	c #D4CEC0",
"/$	c #B2AA9C",
"($	c #A49B8C",
"_$	c #988F81",
":$	c #8A8173",
"<$	c #7F7566",
"[$	c #7F715E",
"}$	c #877966",
"|$	c #8F816E",
"1$	c #91826F",
"2$	c #EAE9E8",
"3$	c #DFDFE5",
"4$	c #D7D7E3",
"5$	c #C6C7DE",
"6$	c #8F94CF",
"7$	c #7F87CA",
"8$	c #DADAE2",
"9$	c #F6F4ED",
"0$	c #F3F2EE",
"a$	c #C6C8E5",
"b$	c #959BD8",
"c$	c #8D94CB",
"d$	c #969DC2",
"e$	c #9DA4C0",
"f$	c #B3B8C8",
"g$	c #EBEDDA",
"h$	c #FFFFDC",
"i$	c #FFFFD2",
"j$	c #FBFADC",
"k$	c #F5F4ED",
"l$	c #EDECEB",
"m$	c #DDDBD9",
"n$	c #F6F4EF",
"o$	c #B8BBE2",
"p$	c #6670CD",
"q$	c #4855AE",
"r$	c #8B9398",
"s$	c #D3D691",
"t$	c #EAEB95",
"u$	c #F5F69E",
"v$	c #FFFFA7",
"w$	c #FFFFAB",
"x$	c #FFFFA8",
"y$	c #C9CCA8",
"z$	c #717BA9",
"A$	c #6F78C8",
"B$	c #E4E4E9",
"C$	c #A8A9C8",
"D$	c #384692",
"E$	c #838B66",
"F$	c #DEE14E",
"G$	c #FFFF4D",
"H$	c #FFFF59",
"I$	c #FFFF63",
"J$	c #FAFB6E",
"K$	c #EEEF79",
"L$	c #E5E782",
"M$	c #B5BA96",
"N$	c #6A74A7",
"O$	c #4350BD",
"P$	c #6A75D1",
"Q$	c #A6ADE2",
"R$	c #929AD6",
"S$	c #D0D1E0",
"T$	c #6A71B3",
"U$	c #A0A64F",
"V$	c #FFFF0A",
"W$	c #FFFF15",
"X$	c #F7F72E",
"Y$	c #C4C852",
"Z$	c #A1A875",
"`$	c #878F94",
" %	c #717BB0",
".%	c #606BCA",
"+%	c #717DD8",
"@%	c #A2A9E0",
"#%	c #B4BAE3",
"$%	c #AEB4E0",
"%%	c #A2AADD",
"&%	c #7F88CE",
"*%	c #C2C3D5",
"=%	c #9699C6",
"-%	c #4D5ABD",
";%	c #545F99",
">%	c #58638C",
",%	c #4553AB",
"'%	c #5763BA",
")%	c #5E6BC4",
"!%	c #6975CA",
"~%	c #7A85CF",
"{%	c #A2A3BF",
"]%	c #C8C1AC",
"^%	c #9099D6",
"/%	c #919AD6",
"(%	c #8E97D5",
"_%	c #8993D4",
":%	c #6C78CB",
"<%	c #B8BACF",
"[%	c #B7B8CE",
"}%	c #4654C0",
"|%	c #5764C2",
"1%	c #3545B7",
"2%	c #3A49B6",
"3%	c #4655BA",
"4%	c #515FBE",
"5%	c #5C69C2",
"6%	c #6472C7",
"7%	c #B4B1A7",
"8%	c #D3CC69",
"9%	c #7883C9",
"0%	c #7681CD",
"a%	c #717CCB",
"b%	c #6A76C8",
"c%	c #5562C4",
"d%	c #9CA0C5",
"e%	c #EEEDEC",
"f%	c #C3C3D2",
"g%	c #4755C1",
"h%	c #505FBF",
"i%	c #2A3CB0",
"j%	c #2537AF",
"k%	c #3243B3",
"l%	c #3C4CB7",
"m%	c #4655BB",
"n%	c #4D5CBE",
"o%	c #8D8FA9",
"p%	c #C1C379",
"q%	c #6C6D9A",
"r%	c #505AAD",
"s%	c #5D6398",
"t%	c #2A399B",
"u%	c #0119A9",
"v%	c #666FB6",
"w%	c #EFEEEB",
"x%	c #5460C3",
"y%	c #4E5DBD",
"z%	c #1E31AC",
"A%	c #1125A7",
"B%	c #1D30AB",
"C%	c #2639B0",
"D%	c #293DB5",
"E%	c #3044B8",
"F%	c #7B7C94",
"G%	c #9AA176",
"H%	c #B5B194",
"I%	c #99A3A8",
"J%	c #818D7C",
"K%	c #5C5F6F",
"L%	c #0015AE",
"M%	c #404EB0",
"N%	c #5F6BC8",
"O%	c #5262C1",
"P%	c #1F34AE",
"Q%	c #011AA5",
"R%	c #0822A8",
"S%	c #2135A4",
"T%	c #7C7E87",
"U%	c #A2A179",
"V%	c #8C9684",
"W%	c #6E8082",
"X%	c #718172",
"Y%	c #7B8161",
"Z%	c #676D6A",
"`%	c #0426AD",
" &	c #0023AF",
".&	c #1D2FAB",
"+&	c #E6E4E0",
"@&	c #6A75CA",
"#&	c #586AC6",
"$&	c #2740B6",
"%&	c #0322AB",
"&&	c #0121AB",
"*&	c #243C9A",
"=&	c #7F846B",
"-&	c #5A6A80",
";&	c #556589",
">&	c #7C8D9C",
",&	c #868563",
"'&	c #0023B7",
")&	c #0026B8",
"!&	c #032CB5",
"~&	c #032EB6",
"{&	c #0012AA",
"]&	c #E3DED6",
"^&	c #757ECD",
"/&	c #5D72CB",
"(&	c #2F4CBD",
"_&	c #062BB1",
":&	c #0228B1",
"<&	c #052CB0",
"[&	c #1034AA",
"}&	c #082FB0",
"|&	c #163AAF",
"1&	c #788CAE",
"2&	c #8A8F6E",
"3&	c #002BBC",
"4&	c #0432BA",
"5&	c #0139BD",
"6&	c #0035BA",
"7&	c #669ECD",
"8&	c #A8CAE3",
"9&	c #F0EDEB",
"0&	c #7F86CE",
"a&	c #627ACF",
"b&	c #3858C4",
"c&	c #0A34B8",
"d&	c #0430B7",
"e&	c #0431B8",
"f&	c #0432B9",
"g&	c #0533BA",
"h&	c #0C38B4",
"i&	c #798FB6",
"j&	c #758A8C",
"k&	c #1A42AB",
"l&	c #023EC1",
"m&	c #0F63C5",
"n&	c #4B8AC6",
"o&	c #9595B8",
"p&	c #9F93AE",
"q&	c #6D8BBC",
"r&	c #2C7FC6",
"s&	c #92BDDF",
"t&	c #EAEAEA",
"u&	c #8A90D1",
"v&	c #6B82D4",
"w&	c #4064CB",
"x&	c #0F3EBE",
"y&	c #0537BC",
"z&	c #0538BE",
"A&	c #053ABF",
"B&	c #0139C0",
"C&	c #798EB5",
"D&	c #6385A5",
"E&	c #325FA1",
"F&	c #2A75C5",
"G&	c #BF858D",
"H&	c #FF7C72",
"I&	c #FF7A6F",
"J&	c #D16643",
"K&	c #FF8674",
"L&	c #F08877",
"M&	c #7780A1",
"N&	c #69A9DC",
"O&	c #E9EAEA",
"P&	c #9FA3D5",
"Q&	c #667DD2",
"R&	c #4971D1",
"S&	c #1548C5",
"T&	c #053EC3",
"U&	c #063FC3",
"V&	c #0640C4",
"W&	c #0642C6",
"X&	c #0240C8",
"Y&	c #6783B4",
"Z&	c #6288B8",
"`&	c #377EAE",
" *	c #C7756F",
".*	c #FF6E53",
"+*	c #FF705E",
"@*	c #EA6A5C",
"#*	c #4F251F",
"$*	c #FF7E67",
"%*	c #FF7859",
"&*	c #FA7B52",
"**	c #66789B",
"=*	c #A8C9E3",
"-*	c #DCDAD9",
";*	c #B9BBDD",
">*	c #586ECD",
",*	c #537DD9",
"'*	c #1B52CC",
")*	c #0745C8",
"!*	c #0747CA",
"~*	c #0847CA",
"{*	c #0848CB",
"]*	c #0548CE",
"^*	c #416BB1",
"/*	c #5F90C4",
"(*	c #50729F",
"_*	c #FF6838",
":*	c #FE6540",
"<*	c #FF6648",
"[*	c #EA5E44",
"}*	c #441C14",
"|*	c #FF704C",
"1*	c #FE6C3F",
"2*	c #FF6F37",
"3*	c #CF724B",
"4*	c #3D88C5",
"5*	c #D3D4E4",
"6*	c #4A5DC6",
"7*	c #5D8ADE",
"8*	c #225ED3",
"9*	c #084CCE",
"0*	c #084DCF",
"a*	c #084ED0",
"b*	c #0950D1",
"c*	c #0951D2",
"d*	c #074FD4",
"e*	c #1469BD",
"f*	c #986D66",
"g*	c #FF6220",
"h*	c #FF5F2A",
"i*	c #FF5F30",
"j*	c #D64F2A",
"k*	c #3A150A",
"l*	c #FF5419",
"m*	c #FF500C",
"n*	c #FF5506",
"o*	c #FF6202",
"p*	c #216EAF",
"q*	c #3848BD",
"r*	c #6795E5",
"s*	c #2A69D8",
"t*	c #0A53D4",
"u*	c #0954D5",
"v*	c #0955D6",
"w*	c #0957D7",
"x*	c #0A58D8",
"y*	c #0B58DA",
"z*	c #0268D0",
"A*	c #A86C51",
"B*	c #F4641F",
"C*	c #FF5912",
"D*	c #FF5814",
"E*	c #934121",
"F*	c #979595",
"G*	c #DC3F00",
"H*	c #FF5A08",
"I*	c #FC630C",
"J*	c #F66E1F",
"K*	c #3470A3",
"L*	c #3A46BA",
"M*	c #6E9EE9",
"N*	c #3275DF",
"O*	c #0C5BD9",
"P*	c #0B5BDA",
"Q*	c #0B5CDC",
"R*	c #0B5DDC",
"S*	c #0B5FDE",
"T*	c #0C60E0",
"U*	c #0468D2",
"V*	c #9D7052",
"W*	c #FF6903",
"X*	c #FF6208",
"Y*	c #FF5F08",
"Z*	c #481800",
"`*	c #AB3A00",
" =	c #FF640A",
".=	c #FE6708",
"+=	c #FF6F08",
"@=	c #FF7A00",
"#=	c #2572AE",
"$=	c #656EC5",
"%=	c #618AE0",
"&=	c #3D82E6",
"*=	c #0E64E0",
"==	c #0C64E2",
"-=	c #0D68E4",
";=	c #0B64E2",
">=	c #054FD6",
",=	c #0037CA",
"'=	c #083EBE",
")=	c #547688",
"!=	c #FF7708",
"~=	c #FF7109",
"{=	c #DF6008",
"]=	c #7A3504",
"^=	c #FE6F08",
"/=	c #FE7609",
"(=	c #FF7D09",
"_=	c #D68127",
":=	c #2B7BB9",
"<=	c #DFDFE6",
"[=	c #1D35B9",
"}=	c #417EE3",
"|=	c #136CE5",
"1=	c #074FD6",
"2=	c #002BBF",
"3=	c #0019B1",
"4=	c #3949AF",
"5=	c #7E83B2",
"6=	c #ACADBC",
"7=	c #3784C1",
"8=	c #CC802D",
"9=	c #FF8008",
"0=	c #FB7D0B",
"a=	c #F77C0D",
"b=	c #FF810F",
"c=	c #FE8210",
"d=	c #FE860D",
"e=	c #FF8C0B",
"f=	c #647A79",
"g=	c #7AA0BE",
"h=	c #C7CAE0",
"i=	c #3944B7",
"j=	c #1B26AC",
"k=	c #4149AD",
"l=	c #878AB5",
"m=	c #C8C6C2",
"n=	c #D6D5CE",
"o=	c #BAD3E7",
"p=	c #2B7DB9",
"q=	c #D98F31",
"r=	c #FC9823",
"s=	c #F9912B",
"t=	c #ED8234",
"u=	c #FFA12A",
"v=	c #F59E2C",
"w=	c #948C68",
"x=	c #3384C8",
"y=	c #C3C5C8",
"z=	c #F5F3EA",
"A=	c #E7E5DB",
"B=	c #E3E1D9",
"C=	c #4594D3",
"D=	c #618792",
"E=	c #91927B",
"F=	c #9B937B",
"G=	c #819388",
"H=	c #4885A9",
"I=	c #468CC8",
"J=	c #BABFC4",
"K=	c #C1D3E1",
"L=	c #85ACCB",
"M=	c #719EC2",
"N=	c #89A8C1",
"O=	c #AEB9C3",
"P=	c #D2D2D3",
". + @ # $ % & * = - ; > , ' ) ! ~ { ] ^ / ( (                                                   ",
"_ : < [ } | 1 2 3 4 5 6 7 8 9 0 a b c d d e f                                                   ",
"g h i j k l m n o p q r s t u v w x y z A B C                                                   ",
"D E F G H I J K L M N O P Q R S T U V W X Y Z                                                   ",
"`  ...+.@.#.$.%.&.*.=.-.;.>.,.'.).!.~.{.].^./.                                                  ",
"(._.:.<.[.}.|.1.2.3.4.5.6.7.8.9.0.a.b.c.d.e.f.                                                  ",
"g.h.i.j.k.l.m.n.o.p.q.r.s.t.u.v.w.x.y.z.A.B.C.                                                  ",
"D.E.F.G.H.I.J.K.L.M.N.O.P.Q.R.S.T.U.V.W.X.Y.Z.                                                  ",
"`. +.+++@+#+$+%+&+*+=+-+;+>+,+'+)+!+~+{+]+^+/+                                                  ",
"(+_+:+<+[+}+|+1+2+3+4+5+6+7+8+9+0+a+b+c+d+e+f+                                                  ",
"g+h+i+j+k+l+m+n+o+p+q+r+s+t+u+v+w+x+y+z+A+B+C+                                                  ",
"D+E+F+G+H+I+J+K+L+M+N+O+P+Q+R+S+T+U+V+W+X+Y+Z+                                                  ",
"`+ @.@+@+@@@#@$@$@%@&@*@`+=@-@;@>@,@'@)@)@)@!@                                                  ",
"~@{@]@^@/@(@_@:@<@[@}@|@1@2@3@4@5@6@7@8@9@0@a@                                                  ",
"b@c@d@e@f@g@h@g@i@j@k@l@m@n@o@p@q@r@s@t@u@v@w@                                                  ",
"x@y@z@A@B@C@D@C@E@r@F@G@H@I@J@K@L@M@N@O@P@Q@R@                                                  ",
"S@y@T@f@U@V@D@T@f@W@X@F@Y@Z@`@W@ #.#+#@###$#%#                                                  ",
"&#D@D@*#=#-#;#C@>#,#'#)#K@!#~#I@{#K@]#^#/#(#_#                                                  ",
":#<#[#}#|#1#2#3#4#D@z@5#6#7#8#9#0#0#a#b#c#d#e#                                                  ",
"f#g#h#i#j#k#}#l#m#n#o#p#A@q#r#s#t#u#a#v#w#x#y#                                                  ",
"z#A#g#B#C#D#g#E#F#G#o#H#f@I#J#K#s#L#M#N#O#P#Q#                                                  ",
"R#S#T#U#V#W#X#Y#Z#`#B@ $.$1#+$@$#$$$%$&$*$=$-$                                                  ",
">#A@;$>$,$'$q#)$!$~${$]$^$/$($_$:$<$[$[$}$|$1$                                                  ",
"                                                                                                ",
"                                                                2$3$4$5$6$7$8$2$                ",
"                                                        9$0$a$b$c$d$e$f$g$h$i$j$k$l$            ",
"                                                  m$n$o$p$q$r$s$t$u$v$w$w$x$y$z$A$B$            ",
"                                                  C$D$E$F$G$H$I$J$K$L$M$N$O$P$Q$R$S$            ",
"                                                  T$U$V$W$X$Y$Z$`$ %.%+%@%#%$%%%&%*%            ",
"                                                  =%-%;%>%,%'%)%!%~%{%]%^%/%(%_%:%<%            ",
"                                                  [%}%|%1%2%3%4%5%6%7%8%9%0%a%b%c%d%e%          ",
"                                                  f%g%h%i%j%k%l%m%n%o%p%q%r%s%t%u%v%w%          ",
"                                                    x%y%z%A%B%C%D%E%F%G%H%I%J%K%L%M%            ",
"                                                    N%O%P%Q%R%S%T%U%V%W%X%Y%Z%`% &.&+&          ",
"                                                    @&#&$&%&&&*&=&-&;&>&,&'&)&!&~&{&]&          ",
"                                                    ^&/&(&_&:&<&[&}&|&1&2&3&4&4&5&6&7&8&9&      ",
"                                                    0&a&b&c&d&e&f&g&h&i&j&k&l&m&n&o&p&q&r&s&t&l$",
"                                                    u&v&w&x&y&z&A&A&B&C&D&E&F&G&H&I&J&K&L&M&N&O&",
"                                                    P&Q&R&S&T&U&V&W&X&Y&Z&`& *.*+*@*#*$*%*&***=*",
"                                                  -*;*>*,*'*)*!*~*{*]*^*/*(*_*:*<*[*}*|*1*2*3*4*",
"                                                    5*6*7*8*9*0*a*b*c*d*e*f*g*h*i*j*k*l*m*n*o*p*",
"                                                      q*r*s*t*u*v*w*x*y*z*A*B*C*D*E*F*G*H*I*J*K*",
"                                                      L*M*N*O*P*Q*R*S*T*U*V*W*X*Y*Z*`* =.=+=@=#=",
"                                                      $=%=&=*===-=;=>=,='=)=!=~={=]=~=^=/=(=_=:=",
"                                                      <=[=}=|=1=2=3=4=5=6=7=8=9=0=a=b=c=d=e=f=g=",
"                                                        h=i=j=k=l=m=n=    o=p=q=r=s=t=u=v=w=x=y=",
"                                                          z=A=B=              C=D=E=F=G=H=I=J=  ",
"                                                                                K=L=M=N=O=P=    "};
